# xmcd CD database file
#
# Track frame offsets:
#	150
#	29232
#	39774
#	83626
#	102970
#	116664
#	144330
#	168758
#	198188
#	232498
#
# Disc length: 3322 seconds
#
# Revision: 0
# Processed by: cddbd v1.5.2PL0 Copyright (c) Steve Scherf et al.
# Submitted via: CDex 1.51
#
DISCID=7f0cf80a
DTITLE=Dan Berglund's - Tonbruket
DYEAR=1900
DGENRE=Jazz
TTITLE0=Sister Sad
TTITLE1=Stethoscope
TTITLE2=Sailor Waltz
TTITLE3=Gi Hop
TTITLE4=The Wind And The Leaves
TTITLE5=Wolverine Hoods
TTITLE6=Monstrous Colossus
TTITLE7=Song For E
TTITLE8=Cold Blooded Music
TTITLE9=Waltz For Matilda
EXTD=
EXTT0=
EXTT1=
EXTT2=
EXTT3=
EXTT4=
EXTT5=
EXTT6=
EXTT7=
EXTT8=
EXTT9=
PLAYORDER=
